<?xml version="1.0" encoding="UTF-8"?>
<!DOCTYPE svg PUBLIC "-//W3C//DTD SVG 1.1//EN" "http://www.w3.org/Graphics/SVG/1.1/DTD/svg11.dtd">
<svg xmlns="http://www.w3.org/2000/svg" version="1.1" width="500px" height="500px" style="shape-rendering:geometricPrecision; text-rendering:geometricPrecision; image-rendering:optimizeQuality; fill-rule:evenodd; clip-rule:evenodd" xmlns:xlink="http://www.w3.org/1999/xlink">
<g><path style="opacity:0.012" fill="#eae6e3" d="M 265.5,128.5 C 244.473,127.845 223.806,128.512 203.5,130.5C 202.596,129.791 202.263,128.791 202.5,127.5C 223.673,127.169 244.673,127.503 265.5,128.5 Z"/></g>
<g><path style="opacity:0.998" fill="#313131" d="M 265.5,128.5 C 265.41,131.152 266.076,133.485 267.5,135.5C 268.057,140.165 269.39,144.498 271.5,148.5C 271.861,152.915 273.194,156.915 275.5,160.5C 275.5,160.833 275.5,161.167 275.5,161.5C 275.723,165.162 276.723,168.495 278.5,171.5C 278.723,175.162 279.723,178.495 281.5,181.5C 281.861,185.915 283.194,189.915 285.5,193.5C 285.5,193.833 285.5,194.167 285.5,194.5C 285.861,198.915 287.194,202.915 289.5,206.5C 289.5,206.833 289.5,207.167 289.5,207.5C 289.41,210.152 290.076,212.485 291.5,214.5C 291.861,218.915 293.194,222.915 295.5,226.5C 295.5,226.833 295.5,227.167 295.5,227.5C 295.861,231.915 297.194,235.915 299.5,239.5C 300.341,241.379 300.675,243.379 300.5,245.5C 289.918,245.82 279.418,245.487 269,244.5C 259.488,213.453 249.822,182.453 240,151.5C 238.974,148.761 237.474,146.428 235.5,144.5C 235.5,143.833 235.5,143.167 235.5,142.5C 235.44,141.957 235.107,141.624 234.5,141.5C 233.614,142.325 233.281,143.325 233.5,144.5C 232.922,149.165 231.589,153.499 229.5,157.5C 228.076,159.515 227.41,161.848 227.5,164.5C 227.737,165.791 227.404,166.791 226.5,167.5C 225.076,169.515 224.41,171.848 224.5,174.5C 224.101,178.116 223.101,181.45 221.5,184.5C 220.076,186.515 219.41,188.848 219.5,191.5C 219.405,193.786 218.738,195.786 217.5,197.5C 216.076,199.515 215.41,201.848 215.5,204.5C 215.737,205.791 215.404,206.791 214.5,207.5C 213.076,209.515 212.41,211.848 212.5,214.5C 212.737,215.791 212.404,216.791 211.5,217.5C 210.076,219.515 209.41,221.848 209.5,224.5C 209.737,225.791 209.404,226.791 208.5,227.5C 207.076,229.515 206.41,231.848 206.5,234.5C 206.279,237.067 205.612,239.401 204.5,241.5C 203.596,242.209 203.263,243.209 203.5,244.5C 201.901,244.768 200.568,244.434 199.5,243.5C 199.5,243.167 199.5,242.833 199.5,242.5C 200.738,240.786 201.405,238.786 201.5,236.5C 201.796,234.597 202.463,232.93 203.5,231.5C 205.277,228.495 206.277,225.162 206.5,221.5C 207.924,219.485 208.59,217.152 208.5,214.5C 208.5,214.167 208.5,213.833 208.5,213.5C 210.68,210.619 211.68,207.286 211.5,203.5C 214.013,199.622 215.346,195.289 215.5,190.5C 217.472,187.916 218.472,184.916 218.5,181.5C 218.232,179.901 218.566,178.568 219.5,177.5C 221.68,174.619 222.68,171.286 222.5,167.5C 224.806,163.915 226.139,159.915 226.5,155.5C 226.5,155.167 226.5,154.833 226.5,154.5C 228.074,152.898 228.741,150.898 228.5,148.5C 228.5,148.167 228.5,147.833 228.5,147.5C 230.213,146.365 230.88,144.698 230.5,142.5C 231.613,141.054 231.78,139.387 231,137.5C 230.329,136.748 229.496,136.414 228.5,136.5C 225.743,135.488 223.076,134.488 220.5,133.5C 215.097,131.795 209.43,131.128 203.5,131.5C 203.5,131.167 203.5,130.833 203.5,130.5C 223.806,128.512 244.473,127.845 265.5,128.5 Z"/></g>
<g><path style="opacity:0.467" fill="#a6a3a2" d="M 203.5,131.5 C 209.43,131.128 215.097,131.795 220.5,133.5C 214.651,133.184 208.984,132.518 203.5,131.5 Z"/></g>
<g><path style="opacity:0.8" fill="#918e8d" d="M 265.5,128.5 C 266.924,130.515 267.59,132.848 267.5,135.5C 266.076,133.485 265.41,131.152 265.5,128.5 Z"/></g>
<g><path style="opacity:0.384" fill="#a9a6a4" d="M 228.5,136.5 C 229.496,136.414 230.329,136.748 231,137.5C 231.78,139.387 231.613,141.054 230.5,142.5C 230.747,140.142 230.081,138.142 228.5,136.5 Z"/></g>
<g><path style="opacity:0.906" fill="#8d8a89" d="M 267.5,135.5 C 269.61,139.502 270.943,143.835 271.5,148.5C 269.39,144.498 268.057,140.165 267.5,135.5 Z"/></g>
<g><path style="opacity:0.129" fill="#cbc7c6" d="M 235.5,142.5 C 234.662,142.842 234.328,143.508 234.5,144.5C 234.167,144.5 233.833,144.5 233.5,144.5C 233.281,143.325 233.614,142.325 234.5,141.5C 235.107,141.624 235.44,141.957 235.5,142.5 Z"/></g>
<g><path style="opacity:0.008" fill="#eae6e3" d="M 234.5,144.5 C 234.833,144.5 235.167,144.5 235.5,144.5C 235.315,145.17 234.981,145.17 234.5,144.5 Z"/></g>
<g><path style="opacity:0.941" fill="#8e8b8a" d="M 230.5,142.5 C 230.88,144.698 230.213,146.365 228.5,147.5C 228.402,145.447 229.069,143.78 230.5,142.5 Z"/></g>
<g><path style="opacity:0.761" fill="#a29f9d" d="M 228.5,148.5 C 228.741,150.898 228.074,152.898 226.5,154.5C 226.595,152.214 227.262,150.214 228.5,148.5 Z"/></g>
<g><path style="opacity:0.859" fill="#999695" d="M 271.5,148.5 C 273.405,152.216 274.739,156.216 275.5,160.5C 273.194,156.915 271.861,152.915 271.5,148.5 Z"/></g>
<g><path style="opacity:0.906" fill="#9d9b99" d="M 226.5,155.5 C 226.139,159.915 224.806,163.915 222.5,167.5C 223.235,163.195 224.568,159.195 226.5,155.5 Z"/></g>
<g><path style="opacity:0.004" fill="#c2bebd" d="M 229.5,157.5 C 229.59,160.152 228.924,162.485 227.5,164.5C 227.41,161.848 228.076,159.515 229.5,157.5 Z"/></g>
<g><path style="opacity:0.82" fill="#969392" d="M 275.5,161.5 C 277.277,164.505 278.277,167.838 278.5,171.5C 276.723,168.495 275.723,165.162 275.5,161.5 Z"/></g>
<g><path style="opacity:0.008" fill="#c2bfbd" d="M 226.5,167.5 C 226.59,170.152 225.924,172.485 224.5,174.5C 224.41,171.848 225.076,169.515 226.5,167.5 Z"/></g>
<g><path style="opacity:0.839" fill="#a4a09f" d="M 222.5,167.5 C 222.68,171.286 221.68,174.619 219.5,177.5C 219.899,173.884 220.899,170.55 222.5,167.5 Z"/></g>
<g><path style="opacity:0.863" fill="#8e8c8b" d="M 278.5,171.5 C 280.277,174.505 281.277,177.838 281.5,181.5C 279.723,178.495 278.723,175.162 278.5,171.5 Z"/></g>
<g><path style="opacity:0.792" fill="#a7a3a2" d="M 218.5,181.5 C 218.472,184.916 217.472,187.916 215.5,190.5C 215.747,187.146 216.747,184.146 218.5,181.5 Z"/></g>
<g><path style="opacity:0.886" fill="#949291" d="M 281.5,181.5 C 283.405,185.216 284.739,189.216 285.5,193.5C 283.194,189.915 281.861,185.915 281.5,181.5 Z"/></g>
<g><path style="opacity:0.014" fill="#ccc8c7" d="M 221.5,184.5 C 221.59,187.152 220.924,189.485 219.5,191.5C 219.41,188.848 220.076,186.515 221.5,184.5 Z"/></g>
<g><path style="opacity:0.863" fill="#9c9998" d="M 285.5,194.5 C 287.405,198.216 288.739,202.216 289.5,206.5C 287.194,202.915 285.861,198.915 285.5,194.5 Z"/></g>
<g><path style="opacity:0.639" fill="#a9a6a4" d="M 215.5,190.5 C 215.346,195.289 214.013,199.622 211.5,203.5C 212.08,198.823 213.413,194.49 215.5,190.5 Z"/></g>
<g><path style="opacity:0.008" fill="#c3bfbd" d="M 217.5,197.5 C 217.59,200.152 216.924,202.485 215.5,204.5C 215.41,201.848 216.076,199.515 217.5,197.5 Z"/></g>
<g><path style="opacity:0.765" fill="#a7a4a3" d="M 211.5,203.5 C 211.68,207.286 210.68,210.619 208.5,213.5C 209.13,209.952 210.13,206.619 211.5,203.5 Z"/></g>
<g><path style="opacity:0.008" fill="#c3bfbd" d="M 214.5,207.5 C 214.59,210.152 213.924,212.485 212.5,214.5C 212.41,211.848 213.076,209.515 214.5,207.5 Z"/></g>
<g><path style="opacity:0.8" fill="#908e8d" d="M 289.5,207.5 C 290.924,209.515 291.59,211.848 291.5,214.5C 290.076,212.485 289.41,210.152 289.5,207.5 Z"/></g>
<g><path style="opacity:0.808" fill="#8f8c8c" d="M 208.5,214.5 C 208.59,217.152 207.924,219.485 206.5,221.5C 206.41,218.848 207.076,216.515 208.5,214.5 Z"/></g>
<g><path style="opacity:0.914" fill="#908d8c" d="M 291.5,214.5 C 293.405,218.216 294.739,222.216 295.5,226.5C 293.194,222.915 291.861,218.915 291.5,214.5 Z"/></g>
<g><path style="opacity:0.022" fill="#e0d9d6" d="M 199.5,217.5 C 199.56,216.957 199.893,216.624 200.5,216.5C 202.756,218.73 202.423,220.73 199.5,222.5C 200.494,220.666 200.494,218.999 199.5,217.5 Z"/></g>
<g><path style="opacity:0.004" fill="#c3bfbe" d="M 211.5,217.5 C 211.59,220.152 210.924,222.485 209.5,224.5C 209.41,221.848 210.076,219.515 211.5,217.5 Z"/></g>
<g><path style="opacity:0.929" fill="#838080" d="M 206.5,221.5 C 206.277,225.162 205.277,228.495 203.5,231.5C 203.723,227.838 204.723,224.505 206.5,221.5 Z"/></g>
<g><path style="opacity:0.004" fill="#c3bfbe" d="M 208.5,227.5 C 208.59,230.152 207.924,232.485 206.5,234.5C 206.41,231.848 207.076,229.515 208.5,227.5 Z"/></g>
<g><path style="opacity:0.871" fill="#989594" d="M 295.5,227.5 C 297.405,231.216 298.739,235.216 299.5,239.5C 297.194,235.915 295.861,231.915 295.5,227.5 Z"/></g>
<g><path style="opacity:0.975" fill="#a5978e" d="M 199.5,217.5 C 200.494,218.999 200.494,220.666 199.5,222.5C 192.89,230.317 185.223,236.983 176.5,242.5C 174.251,243.08 172.585,244.413 171.5,246.5C 171.167,247.5 170.5,248.167 169.5,248.5C 169.631,247.761 169.464,247.094 169,246.5C 167.871,248.141 166.371,249.141 164.5,249.5C 172.631,240.868 180.964,232.368 189.5,224C 192.464,221.19 195.798,219.024 199.5,217.5 Z"/></g>
<g><path style="opacity:0.141" fill="#d6cfcb" d="M 195.5,221.5 C 196.239,221.369 196.906,221.536 197.5,222C 194.945,225.259 191.945,227.593 188.5,229C 191.039,226.63 193.372,224.13 195.5,221.5 Z"/></g>
<g><path style="opacity:0.004" fill="#e5e0de" d="M 201.5,236.5 C 201.405,238.786 200.738,240.786 199.5,242.5C 199.854,240.459 199.854,238.626 199.5,237C 200.094,236.536 200.761,236.369 201.5,236.5 Z"/></g>
<g><path style="opacity:0.009" fill="#e4dfdd" d="M 204.5,241.5 C 205.38,245.076 204.046,247.743 200.5,249.5C 199.817,247.824 198.483,247.157 196.5,247.5C 196.799,245.545 197.799,244.211 199.5,243.5C 200.568,244.434 201.901,244.768 203.5,244.5C 203.263,243.209 203.596,242.209 204.5,241.5 Z"/></g>
<g><path style="opacity:0.004" fill="#eae6e3" d="M 349.5,245.5 C 349.897,244.475 350.563,244.308 351.5,245C 350.906,245.464 350.239,245.631 349.5,245.5 Z"/></g>
<g><path style="opacity:0.004" fill="#e2dcda" d="M 176.5,242.5 C 175.415,244.587 173.749,245.92 171.5,246.5C 172.585,244.413 174.251,243.08 176.5,242.5 Z"/></g>
<g><path style="opacity:0.955" fill="#8f7f73" d="M 169.5,248.5 C 169.573,250.027 168.906,251.027 167.5,251.5C 163.907,253.169 163.907,254.336 167.5,255C 165.256,255.05 163.589,255.883 162.5,257.5C 162.5,258.167 162.167,258.5 161.5,258.5C 160.577,259.303 159.577,259.47 158.5,259C 160.007,258.163 160.507,256.996 160,255.5C 157.937,257.734 155.771,259.734 153.5,261.5C 152.761,261.631 152.094,261.464 151.5,261C 153.017,259.315 154.684,257.815 156.5,256.5C 154.709,255.83 153.042,255.163 151.5,254.5C 157.041,255.624 161.374,253.958 164.5,249.5C 166.371,249.141 167.871,248.141 169,246.5C 169.464,247.094 169.631,247.761 169.5,248.5 Z"/></g>
<g><path style="opacity:0.561" fill="#cdc5bf" d="M 349.5,247.5 C 350.884,246.199 352.384,246.199 354,247.5C 354.773,249.352 354.273,250.686 352.5,251.5C 352.5,250.167 352.5,248.833 352.5,247.5C 351.5,247.5 350.5,247.5 349.5,247.5 Z"/></g>
<g><path style="opacity:0.753" fill="#9c8d83" d="M 196.5,247.5 C 198.483,247.157 199.817,247.824 200.5,249.5C 200.443,250.609 200.11,251.609 199.5,252.5C 197.451,252.294 197.117,251.461 198.5,250C 195.519,249.162 193.186,249.995 191.5,252.5C 189.742,252.877 188.075,253.544 186.5,254.5C 185.537,254.03 185.537,253.363 186.5,252.5C 189.247,249.793 192.58,248.127 196.5,247.5 Z"/></g>
<g><path style="opacity:0.008" fill="#e4dedb" d="M 164.5,249.5 C 161.374,253.958 157.041,255.624 151.5,254.5C 151.167,254.5 150.833,254.5 150.5,254.5C 155.433,253.761 160.099,252.094 164.5,249.5 Z"/></g>
<g><path style="opacity:0.6" fill="#c6bdb7" d="M 199.5,252.5 C 197.051,255.556 194.051,257.889 190.5,259.5C 193.178,256.477 192.512,255.81 188.5,257.5C 188.217,256.711 187.717,256.044 187,255.5C 186.184,256.823 185.017,257.489 183.5,257.5C 185.031,256.075 184.698,255.409 182.5,255.5C 183.262,253.738 184.596,252.738 186.5,252.5C 185.537,253.363 185.537,254.03 186.5,254.5C 188.075,253.544 189.742,252.877 191.5,252.5C 193.186,249.995 195.519,249.162 198.5,250C 197.117,251.461 197.451,252.294 199.5,252.5 Z M 195.5,251.5 C 194.492,253.339 192.992,254.672 191,255.5C 190.53,254.423 190.697,253.423 191.5,252.5C 192.833,252.167 194.167,251.833 195.5,251.5 Z"/></g>
<g><path style="opacity:0.865" fill="#bcb1aa" d="M 167.5,251.5 C 167.414,252.496 167.748,253.329 168.5,254C 172.45,254.484 176.117,255.651 179.5,257.5C 179.047,258.458 178.381,259.292 177.5,260C 178.094,260.464 178.761,260.631 179.5,260.5C 179.5,260.833 179.5,261.167 179.5,261.5C 178.833,261.5 178.5,261.833 178.5,262.5C 177.473,263.848 176.14,264.348 174.5,264C 176.842,262.608 176.842,261.775 174.5,261.5C 175.605,259.7 174.939,258.533 172.5,258C 169.183,257.502 165.85,257.335 162.5,257.5C 163.589,255.883 165.256,255.05 167.5,255C 163.907,254.336 163.907,253.169 167.5,251.5 Z"/></g>
<g><path style="opacity:0.937" fill="#b3a79f" d="M 161.5,258.5 C 151.522,273.329 141.689,288.329 132,303.5C 131.308,302.975 130.808,302.308 130.5,301.5C 137.196,287.268 145.53,274.102 155.5,262C 154.906,261.536 154.239,261.369 153.5,261.5C 155.771,259.734 157.937,257.734 160,255.5C 160.507,256.996 160.007,258.163 158.5,259C 159.577,259.47 160.577,259.303 161.5,258.5 Z"/></g>
<g><path style="opacity:0.714" fill="#b2a69e" d="M 150.5,254.5 C 150.833,254.5 151.167,254.5 151.5,254.5C 153.042,255.163 154.709,255.83 156.5,256.5C 154.684,257.815 153.017,259.315 151.5,261C 152.094,261.464 152.761,261.631 153.5,261.5C 139.126,274.61 122.626,284.277 104,290.5C 100.408,288.821 99.575,286.154 101.5,282.5C 102.881,279.178 104.215,279.011 105.5,282C 105.05,283.285 104.383,284.452 103.5,285.5C 103.808,286.308 104.308,286.975 105,287.5C 122.497,280.335 138.33,270.502 152.5,258C 147.293,257.241 142.126,257.408 137,258.5C 133.51,256.984 133.677,255.818 137.5,255C 141.821,254.501 146.154,254.334 150.5,254.5 Z"/></g>
<g><path style="opacity:0.867" fill="#b7aca4" d="M 226.5,257.5 C 221.11,263.043 214.776,267.376 207.5,270.5C 208.791,269.527 208.791,268.527 207.5,267.5C 212.328,263.919 217.328,260.585 222.5,257.5C 223.865,258.807 225.198,258.807 226.5,257.5 Z"/></g>
<g><path style="opacity:0.01" fill="#e3dddb" d="M 331.5,265.5 C 329.721,266.67 328.721,268.336 328.5,270.5C 324.975,270.478 321.642,270.978 318.5,272C 322.545,269.311 326.879,267.144 331.5,265.5 Z"/></g>
<g><path style="opacity:0.971" fill="#a19389" d="M 349.5,247.5 C 350.5,247.5 351.5,247.5 352.5,247.5C 352.5,248.833 352.5,250.167 352.5,251.5C 352.489,253.017 351.823,254.184 350.5,255C 344.391,259.051 338.058,262.551 331.5,265.5C 326.879,267.144 322.545,269.311 318.5,272C 321.642,270.978 324.975,270.478 328.5,270.5C 328.256,273.263 326.923,275.429 324.5,277C 325.819,277.195 327.153,277.028 328.5,276.5C 329.167,276.5 329.5,276.167 329.5,275.5C 334.538,274.657 339.538,273.657 344.5,272.5C 344.5,273.5 344.5,274.5 344.5,275.5C 337.285,277.47 329.952,278.803 322.5,279.5C 322.933,276.715 324.266,274.381 326.5,272.5C 324.253,271.935 322.253,272.601 320.5,274.5C 317.572,276.548 314.405,278.215 311,279.5C 309.553,279.055 308.22,278.388 307,277.5C 300.938,279.297 294.772,279.797 288.5,279C 288,278.5 287.5,278 287,277.5C 283.164,280.001 279.33,280.001 275.5,277.5C 270.055,279.911 264.722,279.911 259.5,277.5C 253.401,280.024 247.401,280.024 241.5,277.5C 238.86,278.095 236.193,278.428 233.5,278.5C 233.158,277.662 232.492,277.328 231.5,277.5C 231.5,277.167 231.5,276.833 231.5,276.5C 237.278,275.472 242.944,273.972 248.5,272C 256.249,263.809 265.249,257.642 275.5,253.5C 275.5,254.5 275.5,255.5 275.5,256.5C 273.525,256.164 271.525,256.664 269.5,258C 266.01,260.911 262.344,263.578 258.5,266C 257.304,266.654 257.304,267.154 258.5,267.5C 260.497,266.253 262.497,265.419 264.5,265C 263.619,265.708 262.953,266.542 262.5,267.5C 259.325,270.328 255.658,272.328 251.5,273.5C 249.616,273.712 248.283,274.712 247.5,276.5C 248.958,277.782 250.292,277.782 251.5,276.5C 256.061,275.702 260.394,274.202 264.5,272C 271.931,264.713 280.264,258.88 289.5,254.5C 291.225,254.843 291.725,255.843 291,257.5C 290.667,256.833 290.333,256.167 290,255.5C 287.674,257.066 285.508,258.732 283.5,260.5C 280.379,262.448 277.379,264.615 274.5,267C 277.632,266.101 280.632,264.601 283.5,262.5C 284.107,262.624 284.44,262.957 284.5,263.5C 282.469,265.522 280.135,267.189 277.5,268.5C 272.35,269.905 268.016,272.572 264.5,276.5C 265.614,277.776 266.614,277.776 267.5,276.5C 274.456,274.959 281.123,272.626 287.5,269.5C 291.183,269.087 294.517,269.921 297.5,272C 295.5,273.667 293.5,275.333 291.5,277C 294.039,277.796 296.372,277.629 298.5,276.5C 302.545,275.714 306.545,274.714 310.5,273.5C 315.449,273.223 319.116,270.89 321.5,266.5C 329.215,257.786 338.548,251.453 349.5,247.5 Z M 344.5,254.5 C 344.5,254.833 344.5,255.167 344.5,255.5C 343.233,256.087 342.233,256.087 341.5,255.5C 342.325,254.614 343.325,254.281 344.5,254.5 Z M 348.5,252.5 C 347.609,253.11 346.609,253.443 345.5,253.5C 346.221,251.618 347.221,251.285 348.5,252.5 Z M 287.5,271.5 C 289.199,271.34 290.866,271.506 292.5,272C 289.394,274.141 286.061,275.475 282.5,276C 284.618,274.951 286.284,273.451 287.5,271.5 Z"/></g>
<g><path style="opacity:0.908" fill="#beb3ac" d="M 275.5,256.5 C 276.55,256.905 276.55,257.571 275.5,258.5C 271.631,262.26 267.298,265.26 262.5,267.5C 262.953,266.542 263.619,265.708 264.5,265C 262.497,265.419 260.497,266.253 258.5,267.5C 257.304,267.154 257.304,266.654 258.5,266C 262.344,263.578 266.01,260.911 269.5,258C 271.525,256.664 273.525,256.164 275.5,256.5 Z"/></g>
<g><path style="opacity:0.894" fill="#bdb2ab" d="M 289.5,254.5 C 290.209,253.596 291.209,253.263 292.5,253.5C 292.468,258.872 289.802,262.205 284.5,263.5C 284.44,262.957 284.107,262.624 283.5,262.5C 280.632,264.601 277.632,266.101 274.5,267C 277.379,264.615 280.379,262.448 283.5,260.5C 285.508,258.732 287.674,257.066 290,255.5C 290.333,256.167 290.667,256.833 291,257.5C 291.725,255.843 291.225,254.843 289.5,254.5 Z"/></g>
<g><path style="opacity:0.011" fill="#e1dbd8" d="M 348.5,252.5 C 347.221,251.285 346.221,251.618 345.5,253.5C 344.833,253.5 344.5,253.833 344.5,254.5C 343.325,254.281 342.325,254.614 341.5,255.5C 342.233,256.087 343.233,256.087 344.5,255.5C 343.341,257.25 341.674,258.25 339.5,258.5C 338.486,259.674 337.153,260.34 335.5,260.5C 333.215,262.539 330.549,263.706 327.5,264C 334.757,258.246 342.424,253.079 350.5,248.5C 351.395,250.345 350.728,251.678 348.5,252.5 Z"/></g>
<g><path style="opacity:0.014" fill="#dbd4d0" d="M 321.5,266.5 C 319.116,270.89 315.449,273.223 310.5,273.5C 314.195,271.923 317.861,269.589 321.5,266.5 Z"/></g>
<g><path style="opacity:0.008" fill="#dad3cf" d="M 168.5,276.5 C 167.048,277.302 165.382,277.802 163.5,278C 168.194,278.564 172.86,278.397 177.5,277.5C 173.914,279.043 170.08,280.043 166,280.5C 164.249,279.778 162.749,278.778 161.5,277.5C 161.973,276.094 162.973,275.427 164.5,275.5C 167.779,271.854 171.779,270.521 176.5,271.5C 174.487,274.175 171.82,275.842 168.5,276.5 Z M 168.5,276.5 C 167.624,276.631 166.957,276.298 166.5,275.5C 168.808,274.127 169.475,274.46 168.5,276.5 Z M 172.5,271.5 C 175.001,271.511 175.168,272.178 173,273.5C 172.536,272.906 172.369,272.239 172.5,271.5 Z"/></g>
<g><path style="opacity:0.01" fill="#d8d1cd" d="M 229.5,273.5 C 230.85,272.35 230.684,271.683 229,271.5C 226.295,272.939 223.462,273.939 220.5,274.5C 220.158,275.338 219.492,275.672 218.5,275.5C 218.5,274.833 218.167,274.5 217.5,274.5C 218.436,273.026 219.77,272.026 221.5,271.5C 221.833,274.167 222.167,274.167 222.5,271.5C 223.117,271.611 223.617,271.944 224,272.5C 226.213,271.198 228.546,270.198 231,269.5C 233.069,271.704 232.569,273.037 229.5,273.5 Z"/></g>
<g><path style="opacity:0.01" fill="#ded7d4" d="M 298.5,276.5 C 296.372,277.629 294.039,277.796 291.5,277C 293.5,275.333 295.5,273.667 297.5,272C 294.517,269.921 291.183,269.087 287.5,269.5C 290.121,267.803 292.955,267.469 296,268.5C 297.812,270.312 299.645,272.145 301.5,274C 299.212,274.822 296.878,275.489 294.5,276C 295.793,276.49 297.127,276.657 298.5,276.5 Z"/></g>
<g><path style="opacity:0.009" fill="#e6e0dd" d="M 328.5,270.5 C 330.69,271.748 331.023,273.414 329.5,275.5C 328.833,275.5 328.5,275.833 328.5,276.5C 327.153,277.028 325.819,277.195 324.5,277C 326.923,275.429 328.256,273.263 328.5,270.5 Z"/></g>
<g><path style="opacity:0.949" fill="#8a7a6e" d="M 229.5,273.5 C 222.706,276.994 223.373,278.327 231.5,277.5C 232.492,277.328 233.158,277.662 233.5,278.5C 230.167,278.5 226.833,278.5 223.5,278.5C 223.649,274.999 222.649,274.666 220.5,277.5C 220.167,277.5 219.833,277.5 219.5,277.5C 218.508,277.672 217.842,277.338 217.5,276.5C 217.5,276.167 217.5,275.833 217.5,275.5C 217.833,275.5 218.167,275.5 218.5,275.5C 219.492,275.672 220.158,275.338 220.5,274.5C 223.462,273.939 226.295,272.939 229,271.5C 230.684,271.683 230.85,272.35 229.5,273.5 Z"/></g>
<g><path style="opacity:0.016" fill="#d6cfca" d="M 322.5,279.5 C 321.199,278.116 321.199,276.616 322.5,275C 321.906,274.536 321.239,274.369 320.5,274.5C 322.253,272.601 324.253,271.935 326.5,272.5C 324.266,274.381 322.933,276.715 322.5,279.5 Z"/></g>
<g><path style="opacity:0.95" fill="#9f9187" d="M 226.5,257.5 C 225.198,258.807 223.865,258.807 222.5,257.5C 217.328,260.585 212.328,263.919 207.5,267.5C 208.791,268.527 208.791,269.527 207.5,270.5C 204.214,272.155 201.214,274.322 198.5,277C 206.093,275.913 213.259,273.413 220,269.5C 221.301,269.639 222.134,270.305 222.5,271.5C 222.167,271.5 221.833,271.5 221.5,271.5C 219.77,272.026 218.436,273.026 217.5,274.5C 217.5,274.833 217.5,275.167 217.5,275.5C 216.167,275.833 216.167,276.167 217.5,276.5C 217.842,277.338 218.508,277.672 219.5,277.5C 216.092,280.139 212.592,280.139 209,277.5C 203.607,279.711 198.107,280.044 192.5,278.5C 190.801,278.66 189.134,278.494 187.5,278C 189.058,277.79 190.391,277.29 191.5,276.5C 193.674,276.25 195.341,275.25 196.5,273.5C 197.376,273.631 198.043,273.298 198.5,272.5C 194.88,271.47 191.88,272.47 189.5,275.5C 187.887,275.944 186.72,276.944 186,278.5C 184.912,275.232 183.079,274.898 180.5,277.5C 179.5,277.5 178.5,277.5 177.5,277.5C 172.86,278.397 168.194,278.564 163.5,278C 165.382,277.802 167.048,277.302 168.5,276.5C 171.82,275.842 174.487,274.175 176.5,271.5C 171.779,270.521 167.779,271.854 164.5,275.5C 162.973,275.427 161.973,276.094 161.5,277.5C 160.713,279.104 159.38,279.771 157.5,279.5C 157.351,278.448 157.517,277.448 158,276.5C 162.861,270.677 168.361,265.677 174.5,261.5C 176.842,261.775 176.842,262.608 174.5,264C 176.14,264.348 177.473,263.848 178.5,262.5C 179.167,262.5 179.5,262.167 179.5,261.5C 180.833,261.167 180.833,260.833 179.5,260.5C 178.761,260.631 178.094,260.464 177.5,260C 178.381,259.292 179.047,258.458 179.5,257.5C 179.973,256.094 180.973,255.427 182.5,255.5C 184.698,255.409 185.031,256.075 183.5,257.5C 183.167,258.167 182.833,258.833 182.5,259.5C 184.5,258.833 186.5,258.167 188.5,257.5C 192.512,255.81 193.178,256.477 190.5,259.5C 186.355,261.736 182.022,263.736 177.5,265.5C 174.526,266.651 171.526,267.817 168.5,269C 167.304,269.654 167.304,270.154 168.5,270.5C 170.45,269.628 172.45,268.961 174.5,268.5C 174.833,268.5 175.167,268.5 175.5,268.5C 176.167,268.5 176.833,268.5 177.5,268.5C 178.477,271.072 178.477,273.405 177.5,275.5C 182.586,274.027 187.586,272.36 192.5,270.5C 195.85,270.665 199.183,270.498 202.5,270C 203.056,269.617 203.389,269.117 203.5,268.5C 208.22,263.629 213.554,259.462 219.5,256C 221.909,254.293 224.575,253.46 227.5,253.5C 227.768,255.099 227.434,256.432 226.5,257.5 Z M 168.5,276.5 C 169.475,274.46 168.808,274.127 166.5,275.5C 166.957,276.298 167.624,276.631 168.5,276.5 Z M 172.5,271.5 C 172.369,272.239 172.536,272.906 173,273.5C 175.168,272.178 175.001,271.511 172.5,271.5 Z M 188.5,257.5 C 186.5,258.167 184.5,258.833 182.5,259.5C 182.833,258.833 183.167,258.167 183.5,257.5C 185.017,257.489 186.184,256.823 187,255.5C 187.717,256.044 188.217,256.711 188.5,257.5 Z"/></g>
<g><path style="opacity:0.011" fill="#dcd5d2" d="M 196.5,273.5 C 195.341,275.25 193.674,276.25 191.5,276.5C 191.158,275.662 190.492,275.328 189.5,275.5C 191.88,272.47 194.88,271.47 198.5,272.5C 198.043,273.298 197.376,273.631 196.5,273.5 Z"/></g>
<g><path style="opacity:0.396" fill="#d9d1cd" d="M 203.5,268.5 C 203.389,269.117 203.056,269.617 202.5,270C 199.183,270.498 195.85,270.665 192.5,270.5C 193.496,269.335 194.829,268.668 196.5,268.5C 198.853,269.821 201.186,269.821 203.5,268.5 Z"/></g>
<g><path style="opacity:0.007" fill="#ded8d4" d="M 177.5,265.5 C 177.5,266.5 177.5,267.5 177.5,268.5C 176.833,268.5 176.167,268.5 175.5,268.5C 175.167,267.167 174.833,267.167 174.5,268.5C 172.45,268.961 170.45,269.628 168.5,270.5C 167.304,270.154 167.304,269.654 168.5,269C 171.526,267.817 174.526,266.651 177.5,265.5 Z"/></g>
<g><path style="opacity:0.01" fill="#e0dad7" d="M 229.5,273.5 C 230.602,275.092 229.935,275.925 227.5,276C 228.793,276.49 230.127,276.657 231.5,276.5C 231.5,276.833 231.5,277.167 231.5,277.5C 223.373,278.327 222.706,276.994 229.5,273.5 Z"/></g>
<g><path style="opacity:0.024" fill="#dcd6d2" d="M 251.5,273.5 C 251.047,274.458 250.381,275.292 249.5,276C 250.094,276.464 250.761,276.631 251.5,276.5C 250.292,277.782 248.958,277.782 247.5,276.5C 248.283,274.712 249.616,273.712 251.5,273.5 Z"/></g>
<g><path style="opacity:0.013" fill="#e2dcd9" d="M 277.5,268.5 C 274.898,270.81 271.898,272.643 268.5,274C 267.001,274.838 266.668,275.671 267.5,276.5C 266.614,277.776 265.614,277.776 264.5,276.5C 268.016,272.572 272.35,269.905 277.5,268.5 Z"/></g>
<g><path style="opacity:0.773" fill="#c2b8b2" d="M 189.5,275.5 C 189.842,276.338 190.508,276.672 191.5,276.5C 190.391,277.29 189.058,277.79 187.5,278C 189.134,278.494 190.801,278.66 192.5,278.5C 190.657,279.283 188.657,279.95 186.5,280.5C 184.929,278.585 182.929,277.585 180.5,277.5C 183.079,274.898 184.912,275.232 186,278.5C 186.72,276.944 187.887,275.944 189.5,275.5 Z"/></g>
<g><path style="opacity:0.661" fill="#baafa8" d="M 233.5,278.5 C 231.866,279.161 230.033,279.494 228,279.5C 225.134,279.7 222.634,279.033 220.5,277.5C 222.649,274.666 223.649,274.999 223.5,278.5C 226.833,278.5 230.167,278.5 233.5,278.5 Z"/></g>
<g><path style="opacity:0.01" fill="#eae6e3" d="M 190.5,283.5 C 189.5,283.5 188.5,283.5 187.5,283.5C 188.5,280.833 189.5,280.833 190.5,283.5 Z"/></g>
<g><path style="opacity:0.999" fill="#484747" d="M 187.5,283.5 C 188.5,283.5 189.5,283.5 190.5,283.5C 191.043,283.56 191.376,283.893 191.5,284.5C 187.596,295.546 183.929,306.546 180.5,317.5C 178.507,322.421 178.174,327.421 179.5,332.5C 181.167,338.833 185.167,342.833 191.5,344.5C 196.903,346.205 202.57,346.872 208.5,346.5C 208.5,347.5 208.5,348.5 208.5,349.5C 188.05,350.412 167.384,350.412 146.5,349.5C 146.5,348.5 146.5,347.5 146.5,346.5C 150.425,346.57 154.091,345.903 157.5,344.5C 158.209,343.596 159.209,343.263 160.5,343.5C 162.027,343.573 163.027,342.906 163.5,341.5C 164.5,339.833 165.833,338.5 167.5,337.5C 168.906,337.027 169.573,336.027 169.5,334.5C 171.503,329.829 173.503,325.162 175.5,320.5C 177.213,319.365 177.88,317.698 177.5,315.5C 177.557,314.391 177.89,313.391 178.5,312.5C 180.163,310.562 180.829,308.228 180.5,305.5C 182.213,304.365 182.88,302.698 182.5,300.5C 183.924,298.485 184.59,296.152 184.5,293.5C 184.975,289.916 185.975,286.583 187.5,283.5 Z"/></g>
<g><path style="opacity:1" fill="#343333" d="M 312.5,283.5 C 312.861,287.915 314.194,291.915 316.5,295.5C 316.517,299.534 317.517,303.201 319.5,306.5C 319.861,310.915 321.194,314.915 323.5,318.5C 323.5,318.833 323.5,319.167 323.5,319.5C 323.12,321.698 323.787,323.365 325.5,324.5C 326.831,327.829 328.164,331.162 329.5,334.5C 329.427,336.027 330.094,337.027 331.5,337.5C 332.401,338.29 333.068,339.29 333.5,340.5C 333.973,341.906 334.973,342.573 336.5,342.5C 337.995,342.989 339.329,343.655 340.5,344.5C 344.545,346.177 348.878,346.844 353.5,346.5C 353.5,347.5 353.5,348.5 353.5,349.5C 324.09,350.342 294.757,350.342 265.5,349.5C 265.5,348.5 265.5,347.5 265.5,346.5C 271.545,346.572 277.545,346.072 283.5,345C 284.416,344.722 285.082,344.222 285.5,343.5C 286.965,342.263 288.632,341.263 290.5,340.5C 291.906,340.027 292.573,339.027 292.5,337.5C 292.5,337.167 292.5,336.833 292.5,336.5C 295.007,331.194 295.007,325.861 292.5,320.5C 288.499,308.327 284.999,295.993 282,283.5C 292.048,282.262 302.215,282.262 312.5,283.5 Z"/></g>
<g><path style="opacity:0.898" fill="#959391" d="M 312.5,283.5 C 314.405,287.216 315.739,291.216 316.5,295.5C 314.194,291.915 312.861,287.915 312.5,283.5 Z"/></g>
<g><path style="opacity:0.855" fill="#8d8a89" d="M 184.5,293.5 C 184.59,296.152 183.924,298.485 182.5,300.5C 182.41,297.848 183.076,295.515 184.5,293.5 Z"/></g>
<g><path style="opacity:0.843" fill="#969392" d="M 316.5,295.5 C 318.074,298.907 319.074,302.573 319.5,306.5C 317.517,303.201 316.517,299.534 316.5,295.5 Z"/></g>
<g><path style="opacity:0.945" fill="#8a8786" d="M 182.5,300.5 C 182.88,302.698 182.213,304.365 180.5,305.5C 180.402,303.447 181.069,301.78 182.5,300.5 Z"/></g>
<g><path style="opacity:0.8" fill="#a19e9d" d="M 180.5,305.5 C 180.829,308.228 180.163,310.562 178.5,312.5C 178.721,309.933 179.388,307.599 180.5,305.5 Z"/></g>
<g><path style="opacity:0.886" fill="#979493" d="M 319.5,306.5 C 321.405,310.216 322.739,314.216 323.5,318.5C 321.194,314.915 319.861,310.915 319.5,306.5 Z"/></g>
<g><path style="opacity:0.843" fill="#979593" d="M 177.5,315.5 C 177.88,317.698 177.213,319.365 175.5,320.5C 175.796,318.597 176.463,316.93 177.5,315.5 Z"/></g>
<g><path style="opacity:0.839" fill="#918e8d" d="M 323.5,319.5 C 324.537,320.93 325.204,322.597 325.5,324.5C 323.787,323.365 323.12,321.698 323.5,319.5 Z"/></g>
<g><path style="opacity:0.463" fill="#969392" d="M 180.5,317.5 C 180.084,322.493 179.751,327.493 179.5,332.5C 178.174,327.421 178.507,322.421 180.5,317.5 Z"/></g>
<g><path style="opacity:0.553" fill="#9b9897" d="M 292.5,320.5 C 295.007,325.861 295.007,331.194 292.5,336.5C 292.5,331.167 292.5,325.833 292.5,320.5 Z"/></g>
<g><path style="opacity:0.014" fill="#dfdbd9" d="M 329.5,334.5 C 330.906,334.973 331.573,335.973 331.5,337.5C 330.094,337.027 329.427,336.027 329.5,334.5 Z"/></g>
<g><path style="opacity:0.435" fill="#a29f9e" d="M 169.5,334.5 C 169.573,336.027 168.906,337.027 167.5,337.5C 167.427,335.973 168.094,334.973 169.5,334.5 Z"/></g>
<g><path style="opacity:0.388" fill="#a8a5a4" d="M 292.5,337.5 C 292.573,339.027 291.906,340.027 290.5,340.5C 290.427,338.973 291.094,337.973 292.5,337.5 Z"/></g>
<g><path style="opacity:0.004" fill="#c9c5c3" d="M 333.5,340.5 C 335.027,340.427 336.027,341.094 336.5,342.5C 334.973,342.573 333.973,341.906 333.5,340.5 Z"/></g>
<g><path style="opacity:0.698" fill="#959291" d="M 163.5,341.5 C 163.027,342.906 162.027,343.573 160.5,343.5C 160.973,342.094 161.973,341.427 163.5,341.5 Z"/></g>
<g><path style="opacity:0.533" fill="#aba8a7" d="M 157.5,344.5 C 154.091,345.903 150.425,346.57 146.5,346.5C 146.5,347.5 146.5,348.5 146.5,349.5C 145.566,348.432 145.232,347.099 145.5,345.5C 149.481,344.979 153.481,344.646 157.5,344.5 Z"/></g>
<g><path style="opacity:0.252" fill="#b7b3b1" d="M 191.5,344.5 C 197.5,344.833 203.5,345.167 209.5,345.5C 209.768,347.099 209.434,348.432 208.5,349.5C 208.5,348.5 208.5,347.5 208.5,346.5C 202.57,346.872 196.903,346.205 191.5,344.5 Z"/></g>
<g><path style="opacity:0.51" fill="#a39f9e" d="M 285.5,343.5 C 285.082,344.222 284.416,344.722 283.5,345C 277.545,346.072 271.545,346.572 265.5,346.5C 265.5,347.5 265.5,348.5 265.5,349.5C 264.566,348.432 264.232,347.099 264.5,345.5C 271.579,345.553 278.579,344.887 285.5,343.5 Z"/></g>
<g><path style="opacity:0.252" fill="#afabaa" d="M 340.5,344.5 C 345.141,345.127 349.807,345.46 354.5,345.5C 354.768,347.099 354.434,348.432 353.5,349.5C 353.5,348.5 353.5,347.5 353.5,346.5C 348.878,346.844 344.545,346.177 340.5,344.5 Z"/></g>
</svg>
