<?xml version="1.0" standalone="no"?>
<!DOCTYPE svg PUBLIC "-//W3C//DTD SVG 20010904//EN"
 "http://www.w3.org/TR/2001/REC-SVG-20010904/DTD/svg10.dtd">
<svg version="1.0" xmlns="http://www.w3.org/2000/svg"
 width="500.000000pt" height="500.000000pt" viewBox="0 0 500.000000 500.000000"
 preserveAspectRatio="xMidYMid meet">
<metadata>
Created by potrace 1.14, written by Peter Selinger 2001-2017
</metadata>
<g transform="translate(0.000000,500.000000) scale(0.100000,-0.100000)"
fill="#000000" stroke="none">
<path d="M2040 3692 c0 -17 10 -20 90 -24 106 -6 187 -39 182 -73 -2 -11 -73
-248 -158 -528 -85 -279 -154 -510 -154 -513 0 -3 10 -4 21 -2 19 3 38 58 173
508 83 278 156 504 161 504 24 -3 68 -124 201 -553 l142 -456 156 -3 c86 -1
156 1 156 5 0 5 -78 265 -174 578 l-173 570 -311 3 c-299 2 -312 2 -312 -16z"/>
<path d="M1933 2771 c-32 -27 -120 -110 -196 -185 l-138 -136 -58 0 c-88 0
-181 -12 -181 -23 0 -6 39 -7 103 -3 l102 7 -25 -21 c-109 -91 -286 -205 -397
-257 -94 -44 -107 -43 -99 2 4 20 3 35 -3 35 -13 0 -31 -57 -25 -75 22 -56
255 59 492 241 45 35 84 64 87 64 3 0 -27 -43 -66 -95 -64 -87 -201 -303 -215
-340 -4 -9 0 -15 10 -15 9 0 16 4 16 8 0 16 131 225 211 338 l83 116 53 -4
c28 -3 59 -10 67 -18 14 -11 10 -17 -31 -53 -57 -49 -143 -139 -143 -149 0
-16 24 -7 58 23 37 33 90 59 118 59 14 0 14 -3 3 -16 -17 -21 -63 -44 -88 -44
-20 0 -38 -17 -28 -27 3 -3 50 2 103 10 90 15 99 15 110 -1 11 -14 18 -15 56
-5 27 7 47 8 53 2 13 -13 57 -11 105 6 23 8 44 15 46 15 2 0 4 -7 4 -15 0 -19
28 -19 73 0 31 13 36 13 41 0 7 -20 58 -19 148 1 65 15 72 15 80 0 11 -20 39
-20 102 -1 61 19 66 19 66 0 0 -19 33 -19 96 0 27 8 50 15 52 15 1 0 2 -7 2
-15 0 -17 36 -20 75 -5 18 7 31 6 45 -2 15 -9 37 -10 97 -1 43 6 86 15 96 18
13 6 16 3 11 -9 -8 -21 -8 -21 72 19 83 42 92 43 65 9 -39 -49 -8 -56 109 -24
102 28 105 29 94 40 -5 5 -35 2 -74 -9 -36 -10 -78 -21 -95 -25 l-30 -8 28 30
c23 24 25 31 14 41 -11 8 -24 8 -56 -4 -22 -8 -41 -13 -41 -11 0 2 55 31 123
65 134 66 212 119 222 152 26 82 -119 6 -327 -172 -57 -49 -77 -59 -135 -73
-91 -20 -153 -30 -153 -23 0 3 16 15 36 28 l36 22 -23 18 c-32 25 -61 24 -117
-5 -43 -22 -172 -66 -193 -66 -23 0 9 34 55 57 136 68 234 149 210 173 -15 15
-78 -23 -185 -110 -82 -67 -106 -81 -170 -99 -42 -12 -79 -21 -84 -21 -21 0
36 45 107 82 98 53 174 117 165 141 -6 16 -9 16 -45 -2 -43 -22 -129 -87 -183
-138 -37 -35 -117 -62 -229 -78 l-45 -6 38 33 c48 43 38 54 -22 24 -25 -13
-64 -31 -86 -40 l-40 -16 40 34 c46 40 41 58 -7 28 -41 -25 -177 -67 -186 -57
-9 9 20 31 123 89 87 51 165 110 165 127 0 30 -75 -6 -189 -91 -59 -43 -88
-59 -102 -55 -10 4 -47 -5 -82 -18 -34 -14 -82 -28 -107 -32 l-45 -7 19 20
c24 28 14 52 -21 52 -21 0 -3 13 73 50 144 71 215 139 173 165 -13 8 -99 -33
-163 -79 -42 -29 -51 -33 -63 -21 -12 13 -39 20 -101 27 -21 3 -19 7 28 55 28
29 98 89 156 133 92 72 164 146 164 172 0 20 -33 5 -87 -41z m32 -10 c-6 -4
-30 -25 -55 -46 l-45 -37 48 46 c27 25 52 46 55 46 3 0 2 -4 -3 -9z m10 -281
c-31 -35 -205 -133 -205 -116 0 2 23 22 52 43 106 79 197 122 153 73z m1535
10 c0 -11 -110 -84 -180 -120 -69 -35 -33 0 72 70 90 60 108 69 108 50z m-637
-88 c-34 -30 -105 -72 -87 -53 13 14 107 80 114 80 3 0 -9 -12 -27 -27z m-178
-8 c-33 -27 -95 -66 -95 -59 0 5 112 85 119 85 3 -1 -7 -12 -24 -26z m243
-116 c-2 -6 -33 -22 -68 -35 -50 -19 -60 -21 -50 -8 30 36 127 72 118 43z
m-958 -14 c0 -7 -91 -47 -96 -41 -7 7 59 47 79 47 9 0 17 -3 17 -6z"/>
<path d="M1875 2148 c-3 -7 -24 -78 -49 -158 -108 -357 -157 -430 -303 -448
-42 -5 -58 -11 -58 -22 0 -13 44 -15 318 -18 300 -2 318 -1 315 15 -3 15 -18
19 -94 24 -234 17 -256 115 -120 517 33 96 34 102 15 102 -11 0 -22 -6 -24
-12z"/>
<path d="M2824 2143 c4 -9 29 -91 57 -182 61 -201 72 -298 39 -349 -27 -44
-77 -64 -180 -71 -70 -5 -85 -9 -88 -23 -3 -17 23 -18 448 -18 425 0 451 1
448 18 -3 13 -17 18 -68 23 -96 8 -144 39 -186 119 -10 19 -50 139 -89 265
l-71 230 -158 3 c-146 2 -158 1 -152 -15z"/>
</g>
</svg>
