<svg xmlns="http://www.w3.org/2000/svg" viewBox="0 0 128 128" width="128" height="128" fill="none">
<rect width="128" height="128" rx="16" fill="#2727E6"/>
<path transform="translate(15.95 84.46)" d="M0.81 0.00 14.76 -40.92H27.22L41.17 0.00H31.50L21.33 -33.73H20.65L10.42 0.00ZM8.49 -7.94V-14.14H34.66V-7.94ZM59.01 0.87Q54.92 0.87 51.73 0.00Q48.53 -0.87 46.30 -2.54Q44.07 -4.22 42.89 -6.70Q41.71 -9.18 41.71 -12.34L49.71 -14.57Q49.77 -11.66 51.05 -9.80Q52.32 -7.94 54.52 -7.07Q56.72 -6.20 59.45 -6.20Q61.99 -6.20 63.79 -6.85Q65.58 -7.50 66.55 -8.59Q67.51 -9.67 67.51 -11.04Q67.51 -12.65 66.27 -13.67Q65.03 -14.69 62.92 -15.38Q60.81 -16.06 58.14 -16.74Q55.23 -17.42 52.44 -18.29Q49.65 -19.16 47.36 -20.52Q45.06 -21.89 43.67 -24.02Q42.27 -26.16 42.27 -29.45Q42.27 -33.23 44.19 -35.99Q46.12 -38.75 49.71 -40.27Q53.31 -41.79 58.27 -41.79Q63.23 -41.79 66.95 -40.24Q70.67 -38.69 72.68 -35.77Q74.70 -32.86 74.64 -28.83L66.51 -26.91Q66.58 -28.83 65.99 -30.32Q65.40 -31.81 64.34 -32.77Q63.29 -33.73 61.71 -34.25Q60.13 -34.78 58.08 -34.78Q55.79 -34.78 54.14 -34.16Q52.50 -33.54 51.66 -32.52Q50.83 -31.50 50.83 -30.13Q50.83 -28.46 52.10 -27.43Q53.37 -26.41 55.57 -25.73Q57.77 -25.05 60.50 -24.37Q63.17 -23.75 65.89 -22.91Q68.62 -22.07 70.95 -20.71Q73.27 -19.34 74.70 -17.08Q76.12 -14.82 76.12 -11.41Q76.12 -7.56 74.11 -4.80Q72.09 -2.05 68.25 -0.59Q64.41 0.87 59.01 0.87Z" fill="#F7F7F4"/>
<circle cx="106.55" cy="78.96" r="5.5" fill="#F7F7F4"/>
</svg>
